<svg width="1283" height="1280" xmlns="http://www.w3.org/2000/svg" preserveAspectRatio="xMidYMid meet" version="1.0">
 <metadata>Created by potrace 1.15, written by Peter Selinger 2001-2017</metadata>

 <g>
  <title>Layer 1</title>
  <path fill="#ff0000" stroke-width="0" id="svg_2" d="m514.00001,376.09999c-71.4,5.2 -133.3,55.4 -153.1,124.1c-5.6,19.5 -6.4,25.5 -6.3,49.8c0,19.5 0.3,23.9 2.3,33c6.5,30.6 19.2,56.9 38.3,79.5c4.2,4.9 61,62.3 126.2,127.5l118.6,118.5l122.4,-122.5c77.8,-77.9 124.5,-125.4 128.3,-130.5c15.9,-21.4 26,-43.2 31.7,-68.6c10.4,-47 0.9,-96.2 -26.4,-136.3c-8,-11.8 -21.7,-26.8 -32.4,-35.5c-48.5,-39.6 -113.8,-50.4 -172.4,-28.5c-16.3,6.1 -29.2,13.2 -43.9,24.2l-7.2,5.4l-4.3,-3.5c-18.5,-15 -47.4,-28.4 -72.8,-33.7c-8,-1.6 -34.1,-4.3 -37.5,-3.9c-0.5,0.1 -5.7,0.5 -11.5,1z"/>
 </g>
</svg>