<svg width="1280" height="1280" xmlns="http://www.w3.org/2000/svg" version="1.0" preserveAspectRatio="xMidYMid meet">
 <metadata>Created by potrace 1.15, written by Peter Selinger 2001-2017</metadata>

 <g>
  <title>Layer 1</title>
  <g transform="translate(0 1280) scale(0.1 -0.1)" fill="#000000" id="svg_1">
   <path d="m5140,9039c-714,-52 -1333,-554 -1531,-1241c-56,-195 -64,-255 -63,-498c0,-195 3,-239 23,-330c65,-306 192,-569 383,-795c42,-49 610,-623 1262,-1275l1186,-1185l1224,1225c778,779 1245,1254 1283,1305c159,214 260,432 317,686c104,470 9,962 -264,1363c-80,118 -217,268 -324,355c-485,396 -1138,504 -1724,285c-163,-61 -292,-132 -439,-242l-72,-54l-43,35c-185,150 -474,284 -728,337c-80,16 -341,43 -375,39c-5,-1 -57,-5 -115,-10zm460,-302c276,-65 499,-186 712,-387l93,-87l97,93c207,198 440,323 718,386c91,20 132,23 305,23c223,0 292,-10 474,-71c428,-142 773,-487 915,-914c54,-164 67,-239 73,-425c4,-143 2,-189 -15,-290c-37,-215 -111,-402 -233,-586c-55,-83 -193,-226 -1200,-1234l-1139,-1140l-1111,1110c-787,787 -1131,1138 -1182,1205c-151,198 -247,434 -282,690c-108,788 433,1516 1222,1645c138,23 418,13 553,-18z" id="svg_2" fill="#666666"/>
  </g>
 </g>
</svg>